<svg xmlns="http://www.w3.org/2000/svg" xmlns:xlink="http://www.w3.org/1999/xlink" width="59.701" height="63.812"
    viewBox="0 0 59.701 63.812">
    <defs>
        <radialGradient id="radial-gradient" cx="0.5" cy="0.5" r="0.495"
            gradientTransform="matrix(1, 0, 0, -1, 0, 4.36)" gradientUnits="objectBoundingBox">
            <stop offset="0" stop-color="#99b248" />
            <stop offset="0.398" stop-color="#99b248" />
            <stop offset="1" stop-color="#1f1f21" />
        </radialGradient>
        <clipPath id="clip-path">
            <rect id="Rectangle_25" data-name="Rectangle 25" width="13.511" height="13.511"
                fill="url(#radial-gradient)" />
        </clipPath>
        <clipPath id="clip-path-2">
            <path id="Path_31" data-name="Path 31"
                d="M48.589,95.028a6.756,6.756,0,1,1-6.755-6.756,6.755,6.755,0,0,1,6.755,6.756"
                transform="translate(-35.078 -88.272)" fill="url(#radial-gradient)" />
        </clipPath>
        <clipPath id="clip-path-3">
            <path id="Path_33" data-name="Path 33"
                d="M41.971,99.238a4.073,4.073,0,1,0,4.073-4.073,4.073,4.073,0,0,0-4.073,4.073"
                transform="translate(-41.971 -95.165)" fill="#1f1f21" />
        </clipPath>
        <clipPath id="clip-path-5">
            <path id="Path_37" data-name="Path 37"
                d="M95.481,95.028a6.756,6.756,0,1,1-6.755-6.756,6.755,6.755,0,0,1,6.755,6.756"
                transform="translate(-81.97 -88.272)" fill="url(#radial-gradient)" />
        </clipPath>
        <clipPath id="clip-path-6">
            <path id="Path_39" data-name="Path 39"
                d="M88.863,99.238a4.073,4.073,0,1,0,4.073-4.073,4.073,4.073,0,0,0-4.073,4.073"
                transform="translate(-88.863 -95.165)" fill="#1f1f21" />
        </clipPath>
        <clipPath id="clip-path-7">
            <path id="Path_50" data-name="Path 50"
                d="M75.951,135.415,67,136.277a1.382,1.382,0,0,1-1.423-.837A5.976,5.976,0,0,0,77.2,134.207a1.381,1.381,0,0,1-1.251,1.208"
                transform="translate(-65.577 -134.207)" fill="#5f6d34" />
        </clipPath>
    </defs>
    <g id="Group_197" data-name="Group 197" transform="translate(0 0)">
        <path id="Union_8" data-name="Union 8"
            d="M13.763,63.812A13.586,13.586,0,0,1,8.42,62.726a13.9,13.9,0,0,1-7.333-7.333A13.591,13.591,0,0,1,0,50.048V42.9A24.181,24.181,0,0,1,1.932,33.39,24.733,24.733,0,0,1,14.98,20.343a24.132,24.132,0,0,1,6.529-1.752v0a4.111,4.111,0,0,1,4.11-4.11H28.9V4.693a2.443,2.443,0,1,1,1.907,0v9.786h3.279a4.11,4.11,0,0,1,4.109,4.109h0v0a24.133,24.133,0,0,1,6.528,1.752A24.731,24.731,0,0,1,57.768,33.39,24.2,24.2,0,0,1,59.7,42.9v7.15A13.752,13.752,0,0,1,45.937,63.812Zm7.251-32.195C13.626,32,7.6,37.113,6.68,43.773l-.02.143a4.686,4.686,0,0,0,2.731,4.828,5.785,5.785,0,0,0,2.546.588H47.763a5.786,5.786,0,0,0,2.547-.588,4.685,4.685,0,0,0,2.731-4.828c-.006-.049-.013-.1-.02-.145C52.1,37.111,46.041,32,38.611,31.613c-2.585-.133-5.2-.208-7.767-.223l-.994,0C26.92,31.388,23.947,31.465,21.014,31.617Z"
            transform="translate(0 0)" fill="#99b248" />
        <g id="Group_14" data-name="Group 14" transform="translate(13.652 34.355)" opacity="0.6"
            style="mix-blend-mode: screen;isolation: isolate">
            <g id="Group_13" data-name="Group 13" transform="translate(0 0)">
                <g id="Group_12" data-name="Group 12" clip-path="url(#clip-path)">
                    <g id="Group_11" data-name="Group 11" transform="translate(0 0)">
                        <g id="Group_10" data-name="Group 10" clip-path="url(#clip-path-2)">
                            <rect id="Rectangle_24" data-name="Rectangle 24" width="13.511" height="13.511"
                                fill="url(#radial-gradient)" />
                        </g>
                    </g>
                </g>
            </g>
        </g>
        <path id="Path_32" data-name="Path 32"
            d="M49.674,98.02a4.849,4.849,0,1,1-4.849-4.849,4.849,4.849,0,0,1,4.849,4.849"
            transform="translate(-24.418 -56.909)" fill="#fbfdf9" />
        <rect id="Rectangle_26" data-name="Rectangle 26" width="59.7" height="63.811" transform="translate(0 0)"
            fill="none" />
        <g id="Group_18" data-name="Group 18" transform="translate(16.335 37.038)">
            <g id="Group_17" data-name="Group 17" clip-path="url(#clip-path-3)">
                <rect id="Rectangle_27" data-name="Rectangle 27" width="8.146" height="8.146" transform="translate(0 0)"
                    fill="#1f1f21" />
            </g>
        </g>
        <path id="Path_34" data-name="Path 34"
            d="M54.4,100.551a1.509,1.509,0,1,1-1.509-1.509,1.508,1.508,0,0,1,1.509,1.509"
            transform="translate(-31.387 -60.495)" fill="#fbfdf9" />
        <path id="Path_35" data-name="Path 35" d="M50.546,112.709a.6.6,0,1,1-.6-.6.6.6,0,0,1,.6.6"
            transform="translate(-30.138 -68.475)" fill="#fbfdf9" />
        <path id="Path_36" data-name="Path 36" d="M46.108,110.862a.3.3,0,1,1-.3-.3.3.3,0,0,1,.3.3"
            transform="translate(-27.795 -67.531)" fill="#fbfdf9" />
        <g id="Group_23" data-name="Group 23" transform="translate(31.902 34.355)"
            style="mix-blend-mode: screen;isolation: isolate">
            <g id="Group_22" data-name="Group 22" transform="translate(0 0)" opacity="0.6">
                <g id="Group_21" data-name="Group 21" clip-path="url(#clip-path)">
                    <g id="Group_20" data-name="Group 20" transform="translate(0 0)">
                        <g id="Group_19" data-name="Group 19" clip-path="url(#clip-path-5)">
                            <rect id="Rectangle_28" data-name="Rectangle 28" width="13.511" height="13.511"
                                transform="translate(0)" fill="url(#radial-gradient)" />
                        </g>
                    </g>
                </g>
            </g>
        </g>
        <path id="Path_38" data-name="Path 38"
            d="M96.566,98.02a4.849,4.849,0,1,1-4.849-4.849,4.849,4.849,0,0,1,4.849,4.849"
            transform="translate(-53.059 -56.909)" fill="#fbfdf9" />
        <rect id="Rectangle_30" data-name="Rectangle 30" width="59.7" height="63.811" transform="translate(0 0)"
            fill="none" />
        <g id="Group_27" data-name="Group 27" transform="translate(34.585 37.038)">
            <g id="Group_26" data-name="Group 26" clip-path="url(#clip-path-6)">
                <rect id="Rectangle_31" data-name="Rectangle 31" width="8.146" height="8.146" transform="translate(0 0)"
                    fill="#1f1f21" />
            </g>
        </g>
        <path id="Path_40" data-name="Path 40"
            d="M101.3,100.551a1.509,1.509,0,1,1-1.509-1.509,1.509,1.509,0,0,1,1.509,1.509"
            transform="translate(-60.029 -60.495)" fill="#fbfdf9" />
        <path id="Path_41" data-name="Path 41" d="M97.439,112.709a.6.6,0,1,1-.6-.6.6.6,0,0,1,.6.6"
            transform="translate(-58.781 -68.475)" fill="#fbfdf9" />
        <path id="Path_42" data-name="Path 42" d="M93,110.862a.3.3,0,1,1-.3-.3.3.3,0,0,1,.3.3"
            transform="translate(-56.437 -67.531)" fill="#fbfdf9" />
        <rect id="Rectangle_32" data-name="Rectangle 32" width="59.7" height="63.811" transform="translate(0 0)"
            fill="none" />
        <path id="Path_47" data-name="Path 47"
            d="M113.592,93.384c-.272.192-2.171-3.676-7.269-7.03-1.792-1.179-3.561-2.02-3.456-2.264s2.1.213,3.694.954c5.082,2.358,7.354,8.113,7.03,8.341"
            transform="translate(-62.829 -51.321)" fill="#99b248" opacity="0.43" />
        <g id="Group_38" data-name="Group 38" transform="translate(30.058 0.744)" opacity="0.43">
            <path id="Path_44" data-name="Path 44" d="M78.722,2.658a.745.745,0,1,1-.745-.745.745.745,0,0,1,.745.745"
                transform="translate(-77.232 -1.913)" fill="#2f3322" />
            <path id="Path_45" data-name="Path 45"
                d="M120.339,61.067a2.672,2.672,0,0,1-1.965,2.621c-1,.109-1.8-.912-2.621-1.965-.811-1.038-2.586-3.7-1.879-4.459.932-.995,6.389,1.113,6.465,3.8"
                transform="translate(-99.513 -35.568)" fill="#2f3322" />
            <path id="Path_46" data-name="Path 46" d="M106.8,52.745a.849.849,0,1,1-.849-.849.849.849,0,0,1,.849.849"
                transform="translate(-94.252 -32.443)" fill="#2f3322" />
            <path id="Path_48" data-name="Path 48"
                d="M85.094,39.884c-.061.009-.1-.348-.4-.9a4.789,4.789,0,0,0-.3-.477c-.512-.7-2.247-.689-2.383-.688-2.7.024-4.44-.148-4.439-.132s1.268-.012,2.2-.031c2.62-.053,4.18-.194,4.849.508a2.206,2.206,0,0,1,.417.67,1.408,1.408,0,0,1,.054,1.049"
                transform="translate(-77.443 -23.716)" fill="#2f3322" />
        </g>
        <path id="Path_49" data-name="Path 49"
            d="M76.836,132.381a1.379,1.379,0,0,1-1.252,1.208l-8.949.863a1.379,1.379,0,0,1-1.46-.946,6.108,6.108,0,0,1-.193-.855.3.3,0,0,1,.267-.342l11.29-1.089a.295.295,0,0,1,.323.281,6.071,6.071,0,0,1-.025.88"
            transform="translate(-39.689 -80.149)" fill="#fbfdf9" />
        <g id="Group_35" data-name="Group 35" transform="translate(25.522 52.233)" opacity="0.76">
            <g id="Group_34" data-name="Group 34" transform="translate(0 0)" clip-path="url(#clip-path-7)">
                <rect id="Rectangle_35" data-name="Rectangle 35" width="12.184" height="12.184"
                    transform="translate(-2.803 2.803) rotate(-45)" fill="#5f6d34" />
            </g>
        </g>
        <path id="Path_51" data-name="Path 51" d="M0,0H59.7V63.811H0Z" transform="translate(0 0)" fill="none" />
    </g>
</svg>